<svg xmlns="http://www.w3.org/2000/svg" width="14.667" height="14.015" viewBox="0 0 14.667 14.015">
  <path id="Shape" d="M11.454,14.015a.661.661,0,0,1-.31-.078l-3.81-2-3.809,2a.661.661,0,0,1-.31.078.67.67,0,0,1-.512-.241.653.653,0,0,1-.145-.54l.727-4.241L.2,5.991A.667.667,0,0,1,.571,4.853l4.26-.622L6.736.371a.667.667,0,0,1,1.2,0l1.9,3.86,4.26.622a.667.667,0,0,1,.369,1.138l-3.082,3,.727,4.241a.653.653,0,0,1-.145.54A.67.67,0,0,1,11.454,14.015Zm-4.12-3.5a.671.671,0,0,1,.311.076l2.924,1.538L10.01,8.873a.666.666,0,0,1,.192-.59l2.366-2.3L9.3,5.5a.668.668,0,0,1-.5-.365L7.333,2.172,5.871,5.135a.665.665,0,0,1-.5.365L2.1,5.978l2.366,2.3a.666.666,0,0,1,.192.59L4.1,12.128,7.023,10.59A.671.671,0,0,1,7.334,10.513Z" fill="#e8e8e8"/>
</svg>
